<svg width="129" height="20" viewBox="0 0 129 20" fill="none" xmlns="http://www.w3.org/2000/svg">
<path d="M6.144 18.92C5.072 18.92 4.072 18.784 3.144 18.512C2.232 18.24 1.488 17.824 0.912 17.264C0.352 16.704 0.072 16 0.072 15.152C0.072 14.496 0.28 13.84 0.696 13.184C2.168 10.848 4.68 9.112 8.232 7.976C7.704 7.368 7.44 6.68 7.44 5.912C7.44 5.288 7.608 4.752 7.944 4.304C8.6 3.408 9.592 2.664 10.92 2.072C11.672 1.752 12.432 1.504 13.2 1.328C13.984 1.152 14.776 1.064 15.576 1.064C16.568 1.064 17.32 1.224 17.832 1.544C18.36 1.864 18.624 2.312 18.624 2.888C18.624 3.288 18.512 3.656 18.288 3.992C18.08 4.312 17.816 4.576 17.496 4.784C17.176 4.976 16.848 5.072 16.512 5.072C16.016 5.072 15.768 4.952 15.768 4.712C15.768 4.568 15.872 4.496 16.08 4.496C16.144 4.496 16.224 4.512 16.32 4.544C16.432 4.56 16.512 4.568 16.56 4.568C16.896 4.568 17.192 4.392 17.448 4.04C17.704 3.688 17.832 3.336 17.832 2.984C17.832 2.472 17.584 2.104 17.088 1.88C16.608 1.656 16.064 1.544 15.456 1.544C13.936 1.544 12.448 2.032 10.992 3.008C9.456 4.016 8.688 5.152 8.688 6.416C8.688 6.88 8.848 7.312 9.168 7.712C9.728 7.536 10.248 7.416 10.728 7.352C11.224 7.272 11.696 7.232 12.144 7.232C13.68 7.232 14.448 7.528 14.448 8.12C14.448 8.392 14.336 8.632 14.112 8.84C13.888 9.032 13.6 9.184 13.248 9.296C12.912 9.392 12.568 9.44 12.216 9.44C11.848 9.44 11.44 9.392 10.992 9.296C10.544 9.2 10.112 9.072 9.696 8.912C9.28 8.752 8.928 8.568 8.64 8.36C7.136 8.792 5.8 9.464 4.632 10.376C3.48 11.272 2.624 12.28 2.064 13.4C1.76 14.008 1.608 14.6 1.608 15.176C1.608 15.88 1.808 16.456 2.208 16.904C2.608 17.352 3.136 17.68 3.792 17.888C4.464 18.096 5.2 18.2 6 18.2C7.328 18.2 8.648 17.984 9.96 17.552C11.272 17.136 12.392 16.512 13.32 15.68C14.584 14.56 15.216 13.384 15.216 12.152C15.216 11.176 14.744 10.688 13.8 10.688C13.304 10.688 12.752 10.816 12.144 11.072C11.536 11.312 10.96 11.64 10.416 12.056C9.888 12.472 9.448 12.928 9.096 13.424C8.744 13.92 8.568 14.424 8.568 14.936C8.568 15.448 8.792 15.76 9.24 15.872C9.4 15.936 9.48 16.016 9.48 16.112C9.48 16.24 9.36 16.304 9.12 16.304C8.272 16.304 7.848 15.832 7.848 14.888C7.848 14.264 8.032 13.672 8.4 13.112C8.768 12.552 9.24 12.056 9.816 11.624C10.408 11.192 11.048 10.856 11.736 10.616C12.424 10.36 13.088 10.232 13.728 10.232C14.48 10.232 15.064 10.4 15.48 10.736C15.896 11.056 16.104 11.584 16.104 12.32C16.104 13.808 15.28 15.208 13.632 16.52C12.592 17.368 11.44 17.976 10.176 18.344C8.912 18.728 7.568 18.92 6.144 18.92ZM12 8.912C12.864 8.912 13.296 8.664 13.296 8.168C13.296 7.944 12.864 7.832 12 7.832C11.616 7.832 11.216 7.856 10.8 7.904C10.4 7.952 9.992 8.016 9.576 8.096C10.264 8.64 11.072 8.912 12 8.912ZM18.4178 17.048C17.9538 17.048 17.5218 16.936 17.1218 16.712C16.7218 16.472 16.5217 16.08 16.5217 15.536C16.5217 14.784 16.7858 13.888 17.3138 12.848C17.8578 11.808 18.4738 10.728 19.1618 9.608C21.0338 6.568 22.3618 5.048 23.1458 5.048C23.3058 5.048 23.4658 5.112 23.6258 5.24C23.8018 5.352 23.8978 5.48 23.9138 5.624L22.2338 7.88C21.5778 8.76 20.9858 9.576 20.4578 10.328C19.9298 11.064 19.4738 11.728 19.0898 12.32C18.8978 12.624 18.6818 12.968 18.4418 13.352C18.2018 13.736 17.9858 14.136 17.7938 14.552C17.6178 14.952 17.5298 15.36 17.5298 15.776C17.5298 15.968 17.5858 16.144 17.6978 16.304C17.8098 16.448 18.0098 16.52 18.2978 16.52C18.8098 16.52 19.4818 16.248 20.3138 15.704C21.1458 15.144 21.9698 14.376 22.7858 13.4C22.8658 13.304 22.9538 13.216 23.0498 13.136C23.1458 13.056 23.2258 13.016 23.2898 13.016C23.3698 13.016 23.4098 13.064 23.4098 13.16C23.4098 13.208 23.3538 13.304 23.2418 13.448C23.1458 13.576 23.0658 13.68 23.0018 13.76L22.4258 14.408C22.1058 14.76 21.7218 15.144 21.2738 15.56C20.8418 15.976 20.3778 16.328 19.8818 16.616C19.4018 16.904 18.9138 17.048 18.4178 17.048ZM24.0377 17.12C23.6537 17.12 23.2697 16.984 22.8857 16.712C22.5017 16.44 22.2857 16.12 22.2377 15.752C22.0777 14.52 22.8537 13.056 24.5657 11.36C26.2617 9.664 27.7897 8.816 29.1497 8.816C29.5177 8.816 29.8057 8.904 30.0137 9.08C30.1257 9.192 30.2057 9.344 30.2537 9.536C30.3177 9.728 30.3657 9.824 30.3977 9.824C30.4617 9.824 30.5177 9.816 30.5657 9.8C30.6137 9.768 30.6697 9.752 30.7337 9.752C30.9257 9.752 31.0937 9.824 31.2377 9.968C31.3817 10.112 31.4617 10.24 31.4777 10.352C31.4937 10.384 30.9817 11.176 29.9417 12.728C28.9017 14.248 28.4297 15.28 28.5257 15.824C28.6057 16.192 28.7817 16.376 29.0537 16.376C29.8857 16.376 31.4057 15 33.6137 12.248C33.6617 12.184 33.7097 12.152 33.7577 12.152C33.8377 12.152 33.8777 12.208 33.8777 12.32C33.8777 12.448 33.8057 12.608 33.6617 12.8C31.6297 15.536 30.0697 16.904 28.9817 16.904C28.8377 16.904 28.7017 16.88 28.5737 16.832C27.8697 16.56 27.5177 16.032 27.5177 15.248C27.5177 14.976 27.5497 14.704 27.6137 14.432L26.1257 15.872C25.6777 16.32 25.2697 16.64 24.9017 16.832C24.5497 17.024 24.2617 17.12 24.0377 17.12ZM23.8217 16.592C24.7497 16.592 26.0137 15.576 27.6137 13.544L30.1577 10.04C30.0297 9.816 29.8217 9.704 29.5337 9.704C28.5577 9.704 27.2377 10.488 25.5737 12.056C23.8457 13.656 23.0697 14.976 23.2457 16.016C23.3257 16.4 23.5177 16.592 23.8217 16.592ZM37.6243 8.744C37.3523 8.744 37.1123 8.656 36.9043 8.48C36.7123 8.304 36.6163 8.104 36.6163 7.88C36.6163 7.432 36.9203 7.208 37.5283 7.208C37.7523 7.208 37.9763 7.288 38.2003 7.448C38.4243 7.592 38.5363 7.776 38.5363 8C38.5363 8.192 38.4323 8.368 38.2243 8.528C38.0163 8.672 37.8163 8.744 37.6243 8.744ZM33.1843 17.264C32.8323 17.264 32.5443 17.152 32.3203 16.928C32.0803 16.688 31.9603 16.272 31.9603 15.68C31.9603 15.344 32.0403 14.96 32.2003 14.528C32.3443 14.08 32.5283 13.632 32.7523 13.184C32.9923 12.736 33.2243 12.336 33.4483 11.984C34.3443 10.528 35.0803 9.792 35.6563 9.776C35.8003 9.776 35.9763 9.84 36.1843 9.968C36.3923 10.08 36.4963 10.208 36.4963 10.352C36.4963 10.352 35.8883 11.136 34.6723 12.704C33.4723 14.256 32.8723 15.36 32.8723 16.016C32.8723 16.528 33.0723 16.784 33.4723 16.784C33.7283 16.784 34.0563 16.68 34.4563 16.472C34.8723 16.248 35.3043 15.968 35.7523 15.632C36.2003 15.296 36.6243 14.936 37.0243 14.552C37.4403 14.168 37.7763 13.816 38.0323 13.496C38.1923 13.288 38.3283 13.144 38.4403 13.064C38.5683 12.984 38.6483 12.944 38.6803 12.944C38.7443 12.944 38.7763 12.992 38.7763 13.088C38.7763 13.168 38.6803 13.328 38.4883 13.568C38.3123 13.808 38.0643 14.088 37.7443 14.408C37.3603 14.792 36.9363 15.208 36.4723 15.656C36.0083 16.104 35.5043 16.488 34.9603 16.808C34.4163 17.112 33.8243 17.264 33.1843 17.264ZM43.8544 17.048C43.4224 17.048 43.1184 16.928 42.9424 16.688C42.7664 16.432 42.6784 16.12 42.6784 15.752C42.6784 14.824 42.9984 13.832 43.6384 12.776L45.1744 10.28C44.0864 11.08 43.0064 12.08 41.9344 13.28C41.6464 13.6 41.3184 13.976 40.9504 14.408C40.5984 14.84 40.2064 15.336 39.7744 15.896C39.1984 16.648 38.8544 17.024 38.7424 17.024C38.5184 17.024 38.3344 16.928 38.1904 16.736C38.0464 16.528 37.9744 16.344 37.9744 16.184C37.9744 16.056 38.0144 15.824 38.0944 15.488C38.1744 15.136 38.2704 14.832 38.3824 14.576C38.4944 14.304 38.6064 14.04 38.7184 13.784C38.8464 13.512 38.9664 13.248 39.0784 12.992L37.6384 14.504C37.6064 14.536 37.5104 14.632 37.3504 14.792C37.1904 14.952 37.0624 15.032 36.9664 15.032C36.8864 15.032 36.8464 14.976 36.8464 14.864C36.8464 14.832 36.8624 14.792 36.8944 14.744C36.9104 14.68 36.9584 14.608 37.0384 14.528C37.2784 14.288 37.5264 14.032 37.7824 13.76C38.0384 13.488 38.3024 13.176 38.5744 12.824C38.7184 12.648 38.9344 12.384 39.2224 12.032C39.5104 11.664 39.8224 11.272 40.1584 10.856C40.5104 10.44 40.8384 10.056 41.1424 9.704C41.2224 9.592 41.3104 9.52 41.4064 9.488C41.5024 9.44 41.5664 9.416 41.5984 9.416C42.0304 9.416 42.2464 9.584 42.2464 9.92C42.2464 10.016 42.2224 10.112 42.1744 10.208C40.7344 12.192 39.8704 13.704 39.5824 14.744C41.4384 12.888 42.9264 11.496 44.0464 10.568C45.1824 9.624 45.9904 9.152 46.4704 9.152C46.7264 9.152 46.9184 9.192 47.0464 9.272C47.1904 9.352 47.2624 9.504 47.2624 9.728C47.2624 9.808 47.2544 9.872 47.2384 9.92C47.1904 10.032 46.8624 10.48 46.2544 11.264C45.8864 11.712 45.5584 12.12 45.2704 12.488C44.9984 12.856 44.7744 13.176 44.5984 13.448C44.3104 13.896 44.0944 14.32 43.9504 14.72C43.8064 15.104 43.7344 15.432 43.7344 15.704C43.7344 15.816 43.7504 15.952 43.7824 16.112C43.8144 16.272 43.9104 16.352 44.0704 16.352C44.4384 16.352 45.0144 16.032 45.7984 15.392C46.1664 15.072 46.5104 14.752 46.8304 14.432C47.1504 14.096 47.4544 13.768 47.7424 13.448C47.8064 13.384 47.9104 13.264 48.0544 13.088C48.1984 12.896 48.2864 12.8 48.3184 12.8C48.3824 12.8 48.4144 12.864 48.4144 12.992C48.4144 13.056 48.3744 13.168 48.2944 13.328C48.2304 13.472 48.1584 13.584 48.0784 13.664C47.9024 13.872 47.6384 14.16 47.2864 14.528C46.9504 14.896 46.5664 15.272 46.1344 15.656C45.7184 16.04 45.3104 16.368 44.9104 16.64C44.5104 16.912 44.1584 17.048 43.8544 17.048ZM48.6381 17.312C48.1261 17.312 47.6621 17.152 47.2461 16.832C46.8301 16.496 46.6221 16.056 46.6221 15.512C46.6221 14.376 47.3181 13.08 48.7101 11.624C50.1341 10.152 51.4061 9.416 52.5261 9.416C52.8941 9.416 53.1901 9.52 53.4141 9.728C53.6541 9.92 53.7741 10.16 53.7741 10.448C53.7741 11.344 53.0621 12.224 51.6381 13.088C50.3741 13.856 49.3101 14.24 48.4461 14.24C48.3181 14.24 48.2061 14.224 48.1101 14.192C47.8701 14.624 47.7501 15.08 47.7501 15.56C47.7501 16.392 48.1421 16.808 48.9261 16.808C49.7261 16.808 50.7581 16.272 52.0221 15.2C52.9981 14.416 53.8301 13.584 54.5181 12.704C54.6621 12.512 54.7901 12.416 54.9021 12.416C54.9981 12.416 55.0461 12.464 55.0461 12.56C55.0461 12.656 54.9821 12.792 54.8541 12.968C54.4061 13.56 53.9261 14.104 53.4141 14.6C52.9021 15.096 52.3501 15.552 51.7581 15.968C50.5261 16.864 49.4861 17.312 48.6381 17.312ZM48.7821 13.712C49.3901 13.712 50.1821 13.408 51.1581 12.8C51.4781 12.576 51.7901 12.328 52.0941 12.056C52.4141 11.768 52.6701 11.48 52.8621 11.192C53.0701 10.904 53.1741 10.648 53.1741 10.424C53.1741 10.216 53.0061 10.112 52.6701 10.112C52.1901 10.112 51.5181 10.472 50.6541 11.192C50.2381 11.544 49.8381 11.928 49.4541 12.344C49.0701 12.76 48.7421 13.2 48.4701 13.664C48.5661 13.696 48.6701 13.712 48.7821 13.712ZM71.4159 19.616C70.5199 19.616 69.5999 19.48 68.6559 19.208C67.7119 18.952 66.8159 18.568 65.9679 18.056C65.1359 17.544 64.4159 16.936 63.8079 16.232C62.5279 17.512 61.3119 18.152 60.1599 18.152C59.5679 18.152 59.1279 17.976 58.8399 17.624C58.5519 17.288 58.4079 16.848 58.4079 16.304C58.4079 15.296 58.7919 14.112 59.5599 12.752C60.2799 11.472 60.8559 10.8 61.2879 10.736C61.6079 10.736 61.9359 11.064 62.2719 11.72L63.7839 14.648C64.6319 13.512 65.5199 12.288 66.4479 10.976C65.1359 10.384 64.4799 9.528 64.4799 8.408C64.4799 7.928 64.5919 7.488 64.8159 7.088C65.0559 6.672 65.3599 6.336 65.7279 6.08C66.0959 5.824 66.4719 5.696 66.8559 5.696C67.3839 5.696 67.7679 5.944 68.0079 6.44C68.0399 6.488 68.0399 6.536 68.0079 6.584C67.9919 6.632 67.9679 6.648 67.9359 6.632C67.8239 6.504 67.6639 6.392 67.4559 6.296C67.2479 6.2 67.0559 6.152 66.8799 6.152C66.5439 6.152 66.2319 6.288 65.9439 6.56C65.6719 6.816 65.4559 7.12 65.2959 7.472C65.1519 7.824 65.0959 8.136 65.1279 8.408C65.1279 9.224 65.7039 9.936 66.8559 10.544C67.1279 10.144 67.4239 9.712 67.7439 9.248C68.0639 8.768 68.4079 8.256 68.7759 7.712C71.9599 3.04 74.6079 0.704 76.7199 0.704C78.2079 0.704 78.9519 1.4 78.9519 2.792C78.9519 4.056 78.3359 5.544 77.1039 7.256C76.4959 8.104 75.7279 8.864 74.7999 9.536C73.8719 10.208 72.8879 10.744 71.8479 11.144C70.8239 11.528 69.8319 11.72 68.8719 11.72C68.6479 11.72 68.4239 11.712 68.1999 11.696C67.9919 11.664 67.7999 11.616 67.6239 11.552C67.2079 12.096 66.7279 12.704 66.1839 13.376C65.6399 14.048 65.0399 14.792 64.3839 15.608C64.6719 16.008 65.0799 16.408 65.6079 16.808C66.1519 17.208 66.7599 17.56 67.4319 17.864C68.1039 18.184 68.7679 18.44 69.4239 18.632C70.0799 18.824 70.6719 18.92 71.1999 18.92C71.8079 18.92 72.3679 18.848 72.8799 18.704C73.3919 18.576 73.8079 18.36 74.1279 18.056C74.4479 17.768 74.6079 17.384 74.6079 16.904C74.6079 16.84 74.6079 16.776 74.6079 16.712C74.6079 16.648 74.5999 16.584 74.5839 16.52C74.5839 16.488 74.5759 16.464 74.5599 16.448C74.5599 16.432 74.5599 16.416 74.5599 16.4C74.5599 16.24 74.6079 16.16 74.7039 16.16C74.8639 16.16 74.9919 16.288 75.0879 16.544C75.1839 16.784 75.2319 16.976 75.2319 17.12C75.2319 17.616 75.0399 18.048 74.6559 18.416C74.2719 18.8 73.7839 19.096 73.1919 19.304C72.6159 19.512 72.0239 19.616 71.4159 19.616ZM68.7039 11.096C69.5199 11.096 70.3919 10.912 71.3199 10.544C72.2479 10.16 73.1199 9.664 73.9359 9.056C74.7679 8.432 75.4399 7.76 75.9519 7.04C77.4079 5.008 78.1359 3.464 78.1359 2.408C78.1359 1.96 78.0079 1.632 77.7519 1.424C77.4959 1.216 77.1839 1.112 76.8159 1.112C76.0159 1.112 75.0239 1.784 73.8399 3.128C73.4719 3.56 72.9839 4.184 72.3759 5C71.7839 5.8 71.0799 6.792 70.2639 7.976C69.9439 8.44 69.5919 8.928 69.2079 9.44C68.8239 9.952 68.4239 10.48 68.0079 11.024C68.2319 11.072 68.4639 11.096 68.7039 11.096ZM60.2079 17.504C60.5119 17.504 60.8479 17.392 61.2159 17.168C61.5999 16.96 61.9679 16.696 62.3199 16.376C62.6719 16.056 62.9599 15.744 63.1839 15.44C62.9599 15.12 62.7199 14.736 62.4639 14.288C62.2079 13.84 61.9279 13.32 61.6239 12.728C61.2559 11.96 60.9759 11.616 60.7839 11.696C60.4959 11.744 60.1839 12.256 59.8479 13.232C59.5119 14.208 59.3439 15.12 59.3439 15.968C59.3439 16.992 59.6319 17.504 60.2079 17.504ZM75.3568 17.312C74.8448 17.312 74.3808 17.152 73.9648 16.832C73.5488 16.496 73.3408 16.056 73.3408 15.512C73.3408 14.376 74.0368 13.08 75.4288 11.624C76.8528 10.152 78.1248 9.416 79.2448 9.416C79.6128 9.416 79.9088 9.52 80.1328 9.728C80.3728 9.92 80.4928 10.16 80.4928 10.448C80.4928 11.344 79.7808 12.224 78.3568 13.088C77.0928 13.856 76.0288 14.24 75.1648 14.24C75.0368 14.24 74.9248 14.224 74.8288 14.192C74.5888 14.624 74.4688 15.08 74.4688 15.56C74.4688 16.392 74.8608 16.808 75.6448 16.808C76.4448 16.808 77.4768 16.272 78.7408 15.2C79.7168 14.416 80.5488 13.584 81.2368 12.704C81.3808 12.512 81.5088 12.416 81.6208 12.416C81.7168 12.416 81.7648 12.464 81.7648 12.56C81.7648 12.656 81.7008 12.792 81.5728 12.968C81.1248 13.56 80.6448 14.104 80.1328 14.6C79.6208 15.096 79.0688 15.552 78.4768 15.968C77.2448 16.864 76.2048 17.312 75.3568 17.312ZM75.5008 13.712C76.1088 13.712 76.9008 13.408 77.8768 12.8C78.1968 12.576 78.5088 12.328 78.8128 12.056C79.1328 11.768 79.3888 11.48 79.5808 11.192C79.7888 10.904 79.8928 10.648 79.8928 10.424C79.8928 10.216 79.7248 10.112 79.3888 10.112C78.9088 10.112 78.2368 10.472 77.3728 11.192C76.9568 11.544 76.5568 11.928 76.1728 12.344C75.7888 12.76 75.4608 13.2 75.1888 13.664C75.2848 13.696 75.3888 13.712 75.5008 13.712ZM81.9049 17.12C81.5209 17.12 81.1369 16.984 80.7529 16.712C80.3689 16.44 80.1529 16.12 80.1049 15.752C79.9449 14.52 80.7209 13.056 82.4329 11.36C84.1289 9.664 85.6569 8.816 87.0169 8.816C87.3849 8.816 87.6729 8.904 87.8809 9.08C87.9929 9.192 88.0729 9.344 88.1209 9.536C88.1849 9.728 88.2329 9.824 88.2649 9.824C88.3289 9.824 88.3849 9.816 88.4329 9.8C88.4809 9.768 88.5369 9.752 88.6009 9.752C88.7929 9.752 88.9609 9.824 89.1049 9.968C89.2489 10.112 89.3289 10.24 89.3449 10.352C89.3609 10.384 88.8489 11.176 87.8089 12.728C86.7689 14.248 86.2969 15.28 86.3929 15.824C86.4729 16.192 86.6489 16.376 86.9209 16.376C87.7529 16.376 89.2729 15 91.4809 12.248C91.5289 12.184 91.5769 12.152 91.6249 12.152C91.7049 12.152 91.7449 12.208 91.7449 12.32C91.7449 12.448 91.6729 12.608 91.5289 12.8C89.4969 15.536 87.9369 16.904 86.8489 16.904C86.7049 16.904 86.5689 16.88 86.4409 16.832C85.7369 16.56 85.3849 16.032 85.3849 15.248C85.3849 14.976 85.4169 14.704 85.4809 14.432L83.9929 15.872C83.5449 16.32 83.1369 16.64 82.7689 16.832C82.4169 17.024 82.1289 17.12 81.9049 17.12ZM81.6889 16.592C82.6169 16.592 83.8809 15.576 85.4809 13.544L88.0249 10.04C87.8969 9.816 87.6889 9.704 87.4009 9.704C86.4249 9.704 85.1049 10.488 83.4409 12.056C81.7129 13.656 80.9369 14.976 81.1129 16.016C81.1929 16.4 81.3849 16.592 81.6889 16.592ZM96.3075 17.048C95.8755 17.048 95.5715 16.928 95.3955 16.688C95.2195 16.432 95.1315 16.12 95.1315 15.752C95.1315 14.824 95.4515 13.832 96.0915 12.776L97.6275 10.28C96.5395 11.08 95.4595 12.08 94.3875 13.28C94.0995 13.6 93.7715 13.976 93.4035 14.408C93.0515 14.84 92.6595 15.336 92.2275 15.896C91.6515 16.648 91.3075 17.024 91.1955 17.024C90.9715 17.024 90.7875 16.928 90.6435 16.736C90.4995 16.528 90.4275 16.344 90.4275 16.184C90.4275 16.056 90.4675 15.824 90.5475 15.488C90.6275 15.136 90.7235 14.832 90.8355 14.576C90.9475 14.304 91.0595 14.04 91.1715 13.784C91.2995 13.512 91.4195 13.248 91.5315 12.992L90.0915 14.504C90.0595 14.536 89.9635 14.632 89.8035 14.792C89.6435 14.952 89.5155 15.032 89.4195 15.032C89.3395 15.032 89.2995 14.976 89.2995 14.864C89.2995 14.832 89.3155 14.792 89.3475 14.744C89.3635 14.68 89.4115 14.608 89.4915 14.528C89.7315 14.288 89.9795 14.032 90.2355 13.76C90.4915 13.488 90.7555 13.176 91.0275 12.824C91.1715 12.648 91.3875 12.384 91.6755 12.032C91.9635 11.664 92.2755 11.272 92.6115 10.856C92.9635 10.44 93.2915 10.056 93.5955 9.704C93.6755 9.592 93.7635 9.52 93.8595 9.488C93.9555 9.44 94.0195 9.416 94.0515 9.416C94.4835 9.416 94.6995 9.584 94.6995 9.92C94.6995 10.016 94.6755 10.112 94.6275 10.208C93.1875 12.192 92.3235 13.704 92.0355 14.744C93.8915 12.888 95.3795 11.496 96.4995 10.568C97.6355 9.624 98.4435 9.152 98.9235 9.152C99.1795 9.152 99.3715 9.192 99.4995 9.272C99.6435 9.352 99.7155 9.504 99.7155 9.728C99.7155 9.808 99.7075 9.872 99.6915 9.92C99.6435 10.032 99.3155 10.48 98.7075 11.264C98.3395 11.712 98.0115 12.12 97.7235 12.488C97.4515 12.856 97.2275 13.176 97.0515 13.448C96.7635 13.896 96.5475 14.32 96.4035 14.72C96.2595 15.104 96.1875 15.432 96.1875 15.704C96.1875 15.816 96.2035 15.952 96.2355 16.112C96.2675 16.272 96.3635 16.352 96.5235 16.352C96.8915 16.352 97.4675 16.032 98.2515 15.392C98.6195 15.072 98.9635 14.752 99.2835 14.432C99.6035 14.096 99.9075 13.768 100.196 13.448C100.26 13.384 100.364 13.264 100.508 13.088C100.652 12.896 100.74 12.8 100.772 12.8C100.836 12.8 100.868 12.864 100.868 12.992C100.868 13.056 100.828 13.168 100.748 13.328C100.684 13.472 100.612 13.584 100.532 13.664C100.356 13.872 100.092 14.16 99.7395 14.528C99.4035 14.896 99.0195 15.272 98.5875 15.656C98.1715 16.04 97.7635 16.368 97.3635 16.64C96.9635 16.912 96.6115 17.048 96.3075 17.048ZM101.475 17.12C100.995 17.12 100.587 16.992 100.251 16.736C99.9152 16.464 99.7232 16.136 99.6752 15.752C99.6112 15.24 99.6832 14.728 99.8912 14.216C100.115 13.688 100.411 13.184 100.779 12.704C101.163 12.224 101.571 11.776 102.003 11.36C103.699 9.664 105.227 8.816 106.587 8.816C107.051 8.816 107.363 8.936 107.523 9.176C107.587 9.256 107.659 9.44 107.739 9.728C109.531 6.816 110.779 5.36 111.483 5.36C111.643 5.36 111.811 5.4 111.987 5.48C112.163 5.56 112.251 5.664 112.251 5.792C112.251 5.872 112.211 5.976 112.131 6.104C111.651 6.696 111.171 7.288 110.691 7.88C110.211 8.456 109.739 9.04 109.275 9.632C108.491 10.624 107.859 11.488 107.379 12.224C106.899 12.96 106.555 13.584 106.347 14.096C106.283 14.256 106.219 14.456 106.155 14.696C106.107 14.92 106.083 15.152 106.083 15.392C106.083 15.696 106.147 15.96 106.275 16.184C106.403 16.408 106.635 16.52 106.971 16.52C107.499 16.52 108.147 16.264 108.915 15.752C109.683 15.24 110.579 14.4 111.603 13.232C111.667 13.168 111.723 13.112 111.771 13.064C111.835 13.016 111.899 12.984 111.963 12.968C112.107 12.936 112.179 12.968 112.179 13.064C112.179 13.112 112.131 13.2 112.035 13.328C111.539 13.92 110.987 14.504 110.379 15.08C109.771 15.656 109.147 16.136 108.507 16.52C107.883 16.888 107.299 17.072 106.755 17.072C106.211 17.072 105.827 16.888 105.603 16.52C105.379 16.152 105.267 15.736 105.267 15.272C105.267 14.792 105.355 14.352 105.531 13.952L103.587 15.896C103.155 16.328 102.755 16.64 102.387 16.832C102.035 17.024 101.731 17.12 101.475 17.12ZM101.259 16.592C101.947 16.592 103.091 15.648 104.691 13.76C104.771 13.664 105.051 13.312 105.531 12.704C106.011 12.08 106.691 11.176 107.571 9.992C107.459 9.8 107.267 9.704 106.995 9.704C106.003 9.704 104.675 10.488 103.011 12.056C101.443 13.512 100.659 14.736 100.659 15.728C100.659 16.304 100.859 16.592 101.259 16.592ZM115.966 17.12C115.278 17.12 114.806 16.944 114.55 16.592C114.294 16.224 114.166 15.736 114.166 15.128C114.166 14.456 114.374 13.656 114.79 12.728C114.95 12.36 115.118 12.032 115.294 11.744C115.47 11.44 115.654 11.16 115.846 10.904C115.782 10.92 115.726 10.928 115.678 10.928C115.63 10.928 115.582 10.928 115.534 10.928C115.15 10.928 114.83 10.656 114.574 10.112L112.798 12.416C111.854 13.648 111.278 14.264 111.07 14.264C110.99 14.264 110.95 14.232 110.95 14.168C110.95 14.088 110.99 13.984 111.07 13.856C111.118 13.76 111.214 13.632 111.358 13.472C111.966 12.768 112.526 12.072 113.038 11.384C113.55 10.696 113.974 10.024 114.31 9.368C114.678 7.976 115.142 7.28 115.702 7.28C116.07 7.28 116.254 7.448 116.254 7.784C116.254 8.088 116.054 8.488 115.654 8.984C115.27 9.48 115.078 9.736 115.078 9.752C115.078 10.088 115.326 10.256 115.822 10.256C116.11 10.256 116.43 10.152 116.782 9.944L117.406 9.56C117.438 9.544 117.486 9.536 117.55 9.536C117.742 9.536 117.91 9.616 118.054 9.776C118.198 9.936 118.246 10.08 118.198 10.208L116.542 12.296C115.518 13.608 115.006 14.664 115.006 15.464C115.006 16.184 115.358 16.544 116.062 16.544C116.542 16.544 117.054 16.4 117.598 16.112C118.158 15.824 118.694 15.472 119.206 15.056C119.734 14.624 120.174 14.208 120.526 13.808L121.102 13.136C121.134 13.104 121.174 13.064 121.222 13.016C121.27 12.968 121.31 12.944 121.342 12.944C121.454 12.944 121.51 13 121.51 13.112C121.51 13.144 121.494 13.2 121.462 13.28C121.43 13.36 121.374 13.448 121.294 13.544L120.526 14.408C120.158 14.824 119.702 15.248 119.158 15.68C118.63 16.096 118.078 16.44 117.502 16.712C116.942 16.984 116.43 17.12 115.966 17.12ZM121.548 17.048C121.148 17.048 120.836 16.864 120.612 16.496C120.388 16.112 120.276 15.744 120.276 15.392C120.276 14.432 120.972 13.088 122.364 11.36C123.772 9.616 124.908 8.744 125.772 8.744C126.588 8.744 126.996 9.176 126.996 10.04C126.996 10.168 126.98 10.304 126.948 10.448C126.932 10.592 126.908 10.744 126.876 10.904C126.908 10.952 126.988 10.976 127.116 10.976C127.548 10.976 128.06 10.824 128.652 10.52C128.636 10.792 128.004 11.184 126.756 11.696C126.932 12.224 126.404 13.232 125.172 14.72C123.908 16.272 122.828 17.048 121.932 17.048H121.548ZM121.98 16.328C122.668 16.328 123.548 15.696 124.62 14.432C125.66 13.2 126.18 12.312 126.18 11.768C125.924 11.624 125.604 11.256 125.22 10.664C124.676 10.664 123.892 11.32 122.868 12.632C121.86 13.912 121.372 14.896 121.404 15.584C121.42 16.08 121.612 16.328 121.98 16.328Z" fill="white"/>
</svg>
